<!-- Generator: Adobe Illustrator 24.1.1, SVG Export Plug-In . SVG Version: 6.00 Build 0)  -->
<svg version="1.1" xmlns="http://www.w3.org/2000/svg" xmlns:xlink="http://www.w3.org/1999/xlink" x="0px" y="0px" viewBox="0 0 600 371" style="enable-background:new 0 0 600 371;" xml:space="preserve" width="600" height="371">
<style type="text/css">
	.st0{display:none;fill:#757575;}
	.st1{font-family:'OpenSans-Semibold';}
	.st2{font-size:20px;}
	.st3{fill:#C09CF6;}
	.st4{fill:#F49890;}
	.st5{fill:#40C464;}
	.st6{fill:#FBBC04;}
	.st7{fill:none;stroke:#757575;stroke-miterlimit:10;}
	.st8{fill:#9E9E9E;}
	.st9{fill:#FAFA00;}
	.st10{fill:#006275;}
	.st11{font-size:14px;}
	.st12{fill:#515151;}
	.st13{font-size:12px;}
	.st14{fill:none;stroke:#000000;stroke-miterlimit:10;}
		.FeatureGroup :not(text){opacity:0;}
	*:focus{outline: 0px solid transparent;}
	.FeatureGroup:hover :not(text){ opacity:0.5;}
	.FeatureGroup:hover .highlight{ opacity:0;}
	.FeatureGroup:focus :not(text){opacity:1 !important}
	.FeatureGroup:focus .label{fill: white;}
	.invis {opacity:0;}
</style>
<text class="invis">A pie chart with four slices. Use tab to explore.</text>
<g tabindex="0" onclick="focus" focusable="true" id="title" aria-describedby="ChartDesc">
	
	<desc id="ChartDesc">A pie chart with four slices.</desc>
	<path class="st0" d="M20.1,37.5V23.2h5.4c1,0,1.7,0,2.2,0.1c0.7,0.1,1.3,0.4,1.8,0.7c0.5,0.3,0.9,0.8,1.1,1.4   c0.3,0.6,0.4,1.2,0.4,2c0,1.2-0.4,2.2-1.2,3.1c-0.8,0.8-2.2,1.2-4.2,1.3H22v5.8H20.1z M22,30h3.7c1.2,0,2.1-0.2,2.6-0.7   c0.5-0.5,0.8-1.1,0.8-1.9c0-0.6-0.2-1.1-0.5-1.5c-0.3-0.4-0.7-0.7-1.2-0.8c-0.3-0.1-0.9-0.1-1.8-0.1H22V30z M32.8,37.5V27.2h1.6   v1.6c0.4-0.7,0.8-1.2,1.1-1.5c0.3-0.2,0.7-0.4,1.1-0.4c0.6,0,1.2,0.2,1.8,0.6l-0.6,1.6c-0.4-0.3-0.9-0.4-1.3-0.4   c-0.4,0-0.7,0.1-1,0.4c-0.3,0.2-0.5,0.5-0.7,1c-0.2,0.6-0.3,1.3-0.3,2v5.4H32.8z M39.2,32.4c0-1.9,0.5-3.3,1.6-4.3   c0.9-0.8,2-1.2,3.3-1.2c1.4,0,2.6,0.5,3.5,1.4c0.9,0.9,1.4,2.2,1.4,3.9c0,1.3-0.2,2.4-0.6,3.2c-0.4,0.8-1,1.4-1.8,1.8   c-0.8,0.4-1.6,0.6-2.5,0.6c-1.5,0-2.6-0.5-3.5-1.4C39.7,35.5,39.2,34.1,39.2,32.4z M41,32.4c0,1.3,0.3,2.3,0.9,3   c0.6,0.7,1.3,1,2.2,1c0.9,0,1.6-0.3,2.2-1c0.6-0.7,0.9-1.7,0.9-3c0-1.3-0.3-2.3-0.9-2.9c-0.6-0.7-1.3-1-2.2-1c-0.9,0-1.6,0.3-2.2,1   C41.3,30,41,31,41,32.4z M57.6,37.5v-1.3c-0.7,1-1.6,1.5-2.9,1.5c-0.8,0-1.6-0.2-2.3-0.7c-0.7-0.5-1.2-1.1-1.6-1.9   c-0.4-0.8-0.6-1.8-0.6-2.8c0-1,0.2-2,0.5-2.8c0.3-0.8,0.9-1.5,1.5-1.9c0.7-0.4,1.5-0.7,2.3-0.7c0.6,0,1.2,0.1,1.7,0.4   c0.5,0.3,0.9,0.6,1.2,1v-5.1h1.7v14.3H57.6z M52,32.4c0,1.3,0.3,2.3,0.8,3s1.2,1,2,1c0.8,0,1.4-0.3,2-0.9c0.5-0.6,0.8-1.6,0.8-2.9   c0-1.4-0.3-2.5-0.8-3.1c-0.5-0.7-1.2-1-2-1c-0.8,0-1.4,0.3-2,1C52.3,30,52,31,52,32.4z M68.7,37.5V36c-0.8,1.2-1.9,1.8-3.3,1.8   c-0.6,0-1.2-0.1-1.7-0.3c-0.5-0.2-0.9-0.5-1.2-0.9c-0.3-0.4-0.4-0.8-0.5-1.3c-0.1-0.3-0.1-0.9-0.1-1.6v-6.4h1.8v5.8   c0,0.9,0,1.5,0.1,1.9c0.1,0.5,0.3,0.8,0.7,1.1c0.4,0.3,0.8,0.4,1.3,0.4c0.5,0,1-0.1,1.5-0.4c0.5-0.3,0.8-0.6,1-1.1   c0.2-0.5,0.3-1.1,0.3-2v-5.6h1.8v10.4H68.7z M79.6,33.8l1.7,0.2c-0.2,1.2-0.7,2.1-1.5,2.8c-0.8,0.7-1.7,1-2.9,1   c-1.4,0-2.6-0.5-3.4-1.4c-0.9-0.9-1.3-2.3-1.3-4c0-1.1,0.2-2.1,0.5-2.9c0.4-0.8,0.9-1.5,1.7-1.9c0.8-0.4,1.6-0.6,2.5-0.6   c1.1,0,2,0.3,2.8,0.9c0.7,0.6,1.2,1.4,1.4,2.4l-1.7,0.3c-0.2-0.7-0.4-1.2-0.9-1.6c-0.4-0.4-0.9-0.5-1.5-0.5c-0.9,0-1.6,0.3-2.2,1   c-0.6,0.6-0.8,1.6-0.8,3c0,1.4,0.3,2.4,0.8,3c0.5,0.6,1.2,0.9,2.1,0.9c0.7,0,1.3-0.2,1.7-0.6C79.2,35.3,79.5,34.6,79.6,33.8z    M90,34.2l1.8,0.2c-0.3,1.1-0.8,1.9-1.6,2.5c-0.8,0.6-1.8,0.9-3,0.9c-1.5,0-2.7-0.5-3.6-1.4c-0.9-0.9-1.3-2.3-1.3-3.9   c0-1.8,0.4-3.1,1.3-4.1c0.9-1,2.1-1.5,3.5-1.5c1.4,0,2.5,0.5,3.4,1.4c0.9,0.9,1.3,2.3,1.3,4c0,0.1,0,0.3,0,0.5h-7.7   c0.1,1.1,0.4,2,1,2.6c0.6,0.6,1.3,0.9,2.2,0.9c0.6,0,1.2-0.2,1.6-0.5C89.3,35.5,89.7,34.9,90,34.2z M84.2,31.4H90   c-0.1-0.9-0.3-1.5-0.7-2c-0.6-0.7-1.3-1-2.2-1c-0.8,0-1.5,0.3-2,0.8C84.6,29.7,84.3,30.5,84.2,31.4z M110.3,32.5l1.9,0.5   c-0.4,1.6-1.1,2.8-2.1,3.6c-1,0.8-2.3,1.2-3.8,1.2c-1.5,0-2.8-0.3-3.8-0.9c-1-0.6-1.7-1.5-2.2-2.7c-0.5-1.2-0.7-2.5-0.8-3.8   c0-1.5,0.3-2.8,0.8-3.9c0.6-1.1,1.4-2,2.4-2.5c1.1-0.6,2.2-0.9,3.5-0.9c1.4,0,2.6,0.4,3.6,1.1c1,0.7,1.7,1.8,2,3.1l-1.9,0.4   c-0.3-1-0.8-1.8-1.5-2.3c-0.6-0.5-1.4-0.7-2.4-0.7c-1.1,0-2,0.3-2.8,0.8c-0.7,0.5-1.3,1.2-1.6,2.1c-0.3,0.9-0.4,1.8-0.4,2.7   c0,1.2,0.2,2.3,0.5,3.2c0.4,0.9,0.9,1.6,1.7,2c0.8,0.4,1.6,0.7,2.4,0.7c1.1,0,2-0.3,2.7-0.9C109.6,34.6,110.1,33.7,110.3,32.5z    M113.2,32.4c0-1.9,0.5-3.3,1.6-4.3c0.9-0.8,2-1.2,3.3-1.2c1.4,0,2.6,0.5,3.5,1.4c0.9,0.9,1.4,2.2,1.4,3.9c0,1.3-0.2,2.4-0.6,3.2   c-0.4,0.8-1,1.4-1.8,1.8c-0.8,0.4-1.6,0.6-2.5,0.6c-1.5,0-2.6-0.5-3.5-1.4C113.7,35.5,113.2,34.1,113.2,32.4z M115,32.4   c0,1.3,0.3,2.3,0.9,3c0.6,0.7,1.3,1,2.2,1c0.9,0,1.6-0.3,2.2-1c0.6-0.7,0.9-1.7,0.9-3c0-1.3-0.3-2.3-0.9-2.9c-0.6-0.7-1.3-1-2.2-1   c-0.9,0-1.6,0.3-2.2,1C115.3,30,115,31,115,32.4z M131.7,37.5V36c-0.8,1.2-1.9,1.8-3.3,1.8c-0.6,0-1.2-0.1-1.7-0.3   c-0.5-0.2-0.9-0.5-1.2-0.9c-0.2-0.4-0.4-0.8-0.5-1.3c-0.1-0.3-0.1-0.9-0.1-1.6v-6.4h1.8v5.8c0,0.9,0,1.5,0.1,1.9   c0.1,0.5,0.3,0.8,0.7,1.1c0.4,0.3,0.8,0.4,1.3,0.4c0.5,0,1-0.1,1.5-0.4c0.5-0.3,0.8-0.6,1-1.1c0.2-0.5,0.3-1.1,0.3-2v-5.6h1.8v10.4   H131.7z M135.9,37.5V27.2h1.6v1.5c0.8-1.1,1.9-1.7,3.3-1.7c0.6,0,1.2,0.1,1.7,0.3c0.5,0.2,0.9,0.5,1.2,0.9c0.3,0.4,0.4,0.8,0.5,1.3   c0.1,0.3,0.1,0.9,0.1,1.7v6.4h-1.8v-6.3c0-0.7-0.1-1.3-0.2-1.6c-0.1-0.4-0.4-0.6-0.7-0.8c-0.3-0.2-0.8-0.3-1.2-0.3   c-0.8,0-1.4,0.2-1.9,0.7c-0.5,0.5-0.8,1.4-0.8,2.7v5.7H135.9z M150.7,36l0.3,1.6c-0.5,0.1-0.9,0.2-1.3,0.2c-0.6,0-1.1-0.1-1.5-0.3   c-0.3-0.2-0.6-0.5-0.7-0.8c-0.1-0.3-0.2-1-0.2-2.1v-6h-1.3v-1.4h1.3v-2.6l1.8-1.1v3.6h1.8v1.4h-1.8v6.1c0,0.5,0,0.8,0.1,1   c0.1,0.1,0.2,0.3,0.3,0.3c0.1,0.1,0.3,0.1,0.6,0.1C150.1,36,150.4,36,150.7,36z" />
	<text transform="matrix(1 0 0 1 18.5002 37.278)" class="st1 st2">Produce Count</text>
</g>
<g id="Static">
	<path class="st3" d="M300,54.9c49.7,0,96.1,24.8,123.7,66.1c27.6,41.3,32.8,93.7,13.7,139.6L300,203.7V54.9z" />
	<path class="st4" d="M437.4,260.6c-9.4,22.6-24.2,42.5-43.1,58.1l-94.4-115L437.4,260.6z" />
	<path class="st5" d="M168.8,273.8c-24.6-46.1-23.3-101.8,3.6-146.6S247.7,54.9,300,54.9v148.8L168.8,273.8z" />
	<path class="st6" d="M394.4,318.7c-34.4,28.3-79.7,39.6-123.4,30.9s-81.2-36.5-102.2-75.8L300,203.7L394.4,318.7z" />
	<path class="st7" d="M18.5,131h126.7h33.5" />
	<path class="st8" d="M180.8,131c0-1.1-0.9-2-2-2s-2,0.9-2,2s0.9,2,2,2S180.8,132.1,180.8,131" />
	<path class="st7" d="M18.5,337h126.7l127.2,5.3" />
	<path class="st8" d="M274.4,342.3c0-1.1-0.9-2-2-2c-1.1,0-2,0.9-2,2s0.9,2,2,2C273.5,344.3,274.4,343.4,274.4,342.3" />
	<path class="st7" d="M581.5,125.2H454.8h-37.3" />
	<path class="st8" d="M419.5,125.2c0-1.1-0.9-2-2-2c-1.1,0-2,0.9-2,2s0.9,2,2,2C418.6,127.2,419.5,126.3,419.5,125.2" />
	<path class="st7" d="M581.5,287.9H454.8h-41.3" />
	<path class="st8" d="M415.5,287.9c0-1.1-0.9-2-2-2c-1.1,0-2,0.9-2,2c0,1.1,0.9,2,2,2C414.6,289.9,415.5,289,415.5,287.9" />
</g>
<g id="Interactive">
	<g tabindex="0" onclick="focus" focusable="true" class="FeatureGroup" id="carrots">
		<rect x="12" y="110.7" class="st9 highlight" width="181.3" height="37.6" />
		<path class="st10" d="M168.8,273.8c-24.6-46.1-23.3-101.8,3.6-146.6S247.7,54.9,300,54.9v148.8L168.8,273.8z" />
		<text transform="matrix(1 0 0 1 187.9998 150.4447)" class="st1 st2 label">21</text>
		<text transform="matrix(1 0 0 1 18.6668 126.6666)" class="st1 st11">Carrots</text>
		<text transform="matrix(1 0 0 1 18.5185 141.852)" class="st12 st1 st13">32.8%</text>
	</g>
	<g tabindex="0" onclick="focus" focusable="true" class="FeatureGroup" id="apples">
		<rect x="389.5" y="105.9" class="st9 highlight" width="195.6" height="37.6" />
		<path class="st10" d="M300,54.9c49.7,0,96.1,24.8,123.7,66.1c27.6,41.3,32.8,93.7,13.7,139.6L300,203.7V54.9z" />
		<text transform="matrix(1 0 0 1 385.3336 145.7037)" class="st1 st2 label">20</text>
		<text transform="matrix(1 0 0 1 535.6112 120.7223)" class="st1 st11">Apples</text>
		<text transform="matrix(1 0 0 1 546.981 137.6481)" class="st12 st1 st13">31.3%</text>
	</g>
	<g tabindex="0" onclick="focus" focusable="true" class="FeatureGroup" id="oranges">
		<rect x="392.4" y="268.7" class="st9 highlight" width="192.6" height="37.6" />
		<path class="st10" d="M437.4,260.6c-9.4,22.6-24.2,42.5-43.1,58.1l-94.4-115L437.4,260.6z" />
		<text transform="matrix(1 0 0 1 389.4818 282.5924)" class="st1 st2 label">5</text>
		<text transform="matrix(1 0 0 1 524.667 283.4071)" class="st1 st11">Oranges</text>
		<text transform="matrix(1 0 0 1 554.1479 300.3705)" class="st12 st1 st13">7.8%</text>
	</g>
	<g tabindex="0" onclick="focus" focusable="true" class="FeatureGroup" id="bananas">
		<g id="Layer_9">
			<rect x="15.6" y="314.6" class="st9 highlight" width="286.2" height="37.6" />
		</g>
		<path class="st10" d="M394.4,318.7c-34.4,28.3-79.7,39.6-123.4,30.9s-81.2-36.5-102.2-75.8L300,203.7L394.4,318.7z" />
		<text transform="matrix(1 0 0 1 265.037 330.0002)" class="st1 st2 label">18</text>
		<text transform="matrix(1 0 0 1 18.5742 332.4444)" class="st1 st11">Bananas</text>

			<text transform="matrix(1 0 0 1 18.5186 349.4817)" class="st12 st1 st13">28.1%</text>

	</g>
</g>
<g id="Static_1_">
	<path class="st14" d="M300,54.9c49.7,0,96.1,24.8,123.7,66.1c27.6,41.3,32.8,93.7,13.7,139.6L300,203.7V54.9z" />
	<path class="st14" d="M437.4,260.6c-9.4,22.6-24.2,42.5-43.1,58.1l-94.4-115L437.4,260.6z" />
	<path class="st14" d="M168.8,273.8c-24.6-46.1-23.3-101.8,3.6-146.6S247.7,54.9,300,54.9v148.8L168.8,273.8z" />
	<path class="st14" d="M394.4,318.7c-34.4,28.3-79.7,39.6-123.4,30.9s-81.2-36.5-102.2-75.8L300,203.7L394.4,318.7z" />
	<path class="st7" d="M18.5,131h126.7h33.5" />
	<path class="st8" d="M180.8,131c0-1.1-0.9-2-2-2s-2,0.9-2,2s0.9,2,2,2S180.8,132.1,180.8,131" />
	<path class="st7" d="M18.5,337h126.7l127.2,5.3" />
	<path class="st8" d="M274.4,342.3c0-1.1-0.9-2-2-2c-1.1,0-2,0.9-2,2s0.9,2,2,2C273.5,344.3,274.4,343.4,274.4,342.3" />
	<path class="st7" d="M581.5,125.2H454.8h-37.3" />
	<path class="st8" d="M419.5,125.2c0-1.1-0.9-2-2-2c-1.1,0-2,0.9-2,2s0.9,2,2,2C418.6,127.2,419.5,126.3,419.5,125.2" />
	<path class="st7" d="M581.5,287.9H454.8h-41.3" />
	<path class="st8" d="M415.5,287.9c0-1.1-0.9-2-2-2c-1.1,0-2,0.9-2,2c0,1.1,0.9,2,2,2C414.6,289.9,415.5,289,415.5,287.9" />
</g>
</svg>